<svg xmlns="http://www.w3.org/2000/svg" xmlns:svg="http://www.w3.org/2000/svg" id="Layer_1" width="2563.803" height="2011.55" data-name="Layer 1" version="1.1" viewBox="0 0 2563.803 2011.55"><metadata id="metadata31"/><defs id="defs4"><style id="style2">.cls-2{fill:#fbc02d}.cls-3{fill:#ff8209}.cls-4{fill:#3965b0}</style></defs><title id="title6">Artboard 96 copy</title><g id="layer2" style="display:inline"><polygon id="polygon16" points="1190.07 1745.09 1200.34 1738.93 1679.2 1456.99 1679.2 1664.19 1190.07 1952.49 478.96 1534 478.96 1333.79 1179.8 1739.14" class="cls-2" transform="translate(0,5.77)" style="fill:#fbc02d"/><polygon id="polygon18" points="437.89 1557.41 447.95 1563.36 1114.5 1955.78 765.62 1955.78 416.33 1752.08 259.66 1659.05 259.66 845.68 437.89 741.78" class="cls-3" transform="translate(0,5.77)" style="fill:#ff8209"/><polygon id="polygon20" points="1179.6 44.23 1678.99 337.46 1678.99 542.39 982.88 131.91 835.03 44.23" class="cls-4" transform="translate(0,5.77)" style="fill:#3965b0"/><polygon id="polygon22" points="1015.94 1596.63 1491.52 1321.88 1659.28 1420.85 1189.87 1697.45" class="cls-4" transform="translate(0,5.77)" style="fill:#3965b0"/><polygon id="polygon24" points="934.62 403.17 229.47 816.12 219.2 822.07 219.2 1636.46 50 1536.05 50 728.23 762.54 300.7" class="cls-2" transform="translate(0,5.77)" style="fill:#fbc02d"/><polygon id="polygon26" points="50 473.81 760.08 47.31 1659.28 578.33 1491.52 677.71 770.35 260.04 759.87 254.09 749.4 260.25 50 679.56" class="cls-3" transform="translate(0,5.77)" style="fill:#ff8209"/></g><g id="layer1"><g id="g840" transform="matrix(13.483154,0,0,13.483154,1814.6107,571.9353)"><circle style="fill:#ea4335;fill-opacity:1" id="circle8273" cx="33.407" cy="2.502" r="2.5"/><circle style="fill:#ea4335;fill-opacity:1" id="circle8275" cx="34.407" cy="11.501" r="2.5"/><circle style="fill:#ea4335;fill-opacity:1" id="circle8277" cx="19.907" cy="20.001" r="3"/><circle style="fill:#ea4335;fill-opacity:1" id="circle8279" cx="24.907" cy="8.001" r="3"/><circle style="fill:#ea4335;fill-opacity:1" id="circle8281" cx="29.407" cy="20.501" r="4.5"/><polygon style="fill:#ea4335;fill-opacity:1" id="polygon8283" points="23.93 32.004 23.93 56.235 8.597 92.002 43.259 92.002 27.93 56.235 27.93 32.004"/><path style="fill:#3965b0;fill-opacity:1" id="path8285" d="M 50.742,89.162 35.927,54.594 V 32.476 l 1.229,-2.475 h -4.463 l -0.766,1.532 v 23.881 l 15.21,35.482 c 0.785,1.569 0.943,3.008 0.425,3.848 -0.502,0.811 -1.793,1.258 -3.636,1.258 H 25.929 25.928 7.93 c -1.842,0 -3.133,-0.447 -3.635,-1.258 -0.519,-0.84 -0.36,-2.278 0.425,-3.848 L 19.93,55.414 V 31.533 l -0.765,-1.532 h -4.463 l 1.229,2.475 V 54.594 L 1.114,89.162 c -1.403,2.842 -1.485,5.64 -0.222,7.685 0.89,1.439 2.833,3.155 7.038,3.155 h 17.998 10e-4 17.997 c 4.205,0 6.148,-1.716 7.038,-3.155 1.264,-2.045 1.182,-4.843 -0.222,-7.685 z"/></g></g></svg>